<?xml version="1.0" encoding="UTF-8"?>
<svg id="Layer_2" data-name="Layer 2" xmlns="http://www.w3.org/2000/svg" viewBox="0 0 34.88 34.88">
  <defs>
    <style>
      .cls-1 {
        fill: #231f20;
        stroke-width: 0px;
      }
    </style>
  </defs>
  <g id="Layer_1-2" data-name="Layer 1">
    <path class="cls-1" d="m15.36,34.88c-2.07,0-4.04-.34-5.92-1.01-1.88-.67-3.61-1.65-5.18-2.93-1.58-1.28-2.94-2.84-4.1-4.67-.11-.19-.16-.36-.16-.51,0-.23.07-.43.22-.58.15-.15.34-.22.58-.22.19,0,.35.05.48.14.13.1.22.2.29.3,1,1.66,2.22,3.08,3.66,4.26,1.44,1.17,3.02,2.07,4.75,2.69,1.73.62,3.52.93,5.38.93,2.56,0,4.93-.45,7.1-1.34,2.18-.9,4.07-2.16,5.7-3.78,1.62-1.62,2.88-3.52,3.78-5.7.9-2.18,1.34-4.54,1.34-7.1,0-1.73-.25-3.38-.75-4.96-.5-1.58-1.24-3.04-2.21-4.38-.97-1.34-2.16-2.53-3.57-3.55.06.41.1.82.11,1.23,0,.42.02.84.02,1.26,0,2.03-.31,3.92-.93,5.68-.62,1.76-1.49,3.36-2.61,4.8-1.12,1.44-2.43,2.68-3.92,3.73-1.49,1.05-3.11,1.85-4.86,2.4-1.75.55-3.56.83-5.44.83-.21,0-.4-.08-.56-.24s-.24-.35-.24-.56c0-.23.08-.43.24-.58.16-.15.35-.22.56-.22,2.15,0,4.2-.39,6.14-1.17,1.94-.78,3.66-1.88,5.17-3.3s2.69-3.09,3.55-5.02c.86-1.93,1.3-4.05,1.3-6.35,0-.64-.03-1.26-.08-1.86-.05-.6-.11-1.11-.16-1.54-.05-.43-.08-.68-.08-.77,0-.23.07-.43.22-.58.15-.15.34-.22.58-.22.21,0,.61.18,1.18.54.58.36,1.23.87,1.97,1.52.74.65,1.44,1.4,2.13,2.26,1.13,1.43,2.05,3.08,2.77,4.94.71,1.87,1.07,3.9,1.07,6.1,0,2.79-.49,5.38-1.46,7.74-.97,2.37-2.34,4.44-4.11,6.21s-3.84,3.14-6.21,4.11c-2.37.97-4.95,1.46-7.74,1.46Z"/>
  </g>
</svg>