<?xml version="1.0" encoding="UTF-8"?>
<svg id="Layer_2" data-name="Layer 2" xmlns="http://www.w3.org/2000/svg" viewBox="0 0 34.91 34.91">
  <defs>
    <style>
      .cls-1 {
        fill: #231f20;
        stroke-width: 0px;
      }
    </style>
  </defs>
  <g id="Layer_1-2" data-name="Layer 1">
    <g>
      <path class="cls-1" d="m17.45,25.44c-4.4,0-7.98-3.58-7.98-7.98s3.58-7.98,7.98-7.98,7.98,3.58,7.98,7.98-3.58,7.98-7.98,7.98Zm0-14.36c-3.52,0-6.38,2.86-6.38,6.38s2.86,6.38,6.38,6.38,6.38-2.86,6.38-6.38-2.86-6.38-6.38-6.38Z"/>
      <path class="cls-1" d="m17.45,7.41c-.44,0-.8-.36-.8-.8V.8c0-.44.36-.8.8-.8s.8.36.8.8v5.81c0,.44-.36.8-.8.8Z"/>
      <path class="cls-1" d="m17.45,34.91c-.44,0-.8-.36-.8-.8v-5.81c0-.44.36-.8.8-.8s.8.36.8.8v5.81c0,.44-.36.8-.8.8Z"/>
      <path class="cls-1" d="m25.13,10.58c-.2,0-.41-.08-.57-.23-.31-.31-.31-.82,0-1.13l4.11-4.11c.31-.31.82-.31,1.13,0,.31.31.31.82,0,1.13l-4.11,4.11c-.16.16-.36.23-.57.23Z"/>
      <path class="cls-1" d="m5.68,30.03c-.2,0-.41-.08-.57-.23-.31-.31-.31-.82,0-1.13l4.11-4.11c.31-.31.82-.31,1.13,0,.31.31.31.82,0,1.13l-4.11,4.11c-.16.16-.36.23-.57.23Z"/>
      <path class="cls-1" d="m34.11,18.25h-5.81c-.44,0-.8-.36-.8-.8s.36-.8.8-.8h5.81c.44,0,.8.36.8.8s-.36.8-.8.8Z"/>
      <path class="cls-1" d="m6.61,18.25H.8c-.44,0-.8-.36-.8-.8s.36-.8.8-.8h5.81c.44,0,.8.36.8.8s-.36.8-.8.8Z"/>
      <path class="cls-1" d="m29.23,30.03c-.2,0-.41-.08-.57-.23l-4.11-4.11c-.31-.31-.31-.82,0-1.13.31-.31.82-.31,1.13,0l4.11,4.11c.31.31.31.82,0,1.13-.16.16-.36.23-.57.23Z"/>
      <path class="cls-1" d="m9.78,10.58c-.2,0-.41-.08-.57-.23l-4.11-4.11c-.31-.31-.31-.82,0-1.13.31-.31.82-.31,1.13,0l4.11,4.11c.31.31.31.82,0,1.13-.16.16-.36.23-.57.23Z"/>
    </g>
  </g>
</svg>